# Blender v2.78 (sub 0) OBJ File: 'sword.blend'
# www.blender.org
mtllib sword.mtl
o Cylinder
v 0.000000 0.740000 0.607192
v 0.000000 0.740000 6.837192
v 0.523259 0.523259 0.607192
v 0.523259 0.523259 6.837192
v 0.740000 -0.000000 0.607192
v 0.740000 0.000000 6.837192
v 0.523259 -0.523259 0.607192
v 0.523259 -0.523259 6.837192
v -0.000000 -0.740000 0.607192
v -0.000000 -0.740000 6.837192
v -0.523259 -0.523259 0.607192
v -0.523259 -0.523259 6.837192
v -0.740000 -0.000000 0.607192
v -0.740000 0.000000 6.837192
v -0.523259 0.523259 0.607192
v -0.523259 0.523259 6.837192
v 0.523259 1.046468 7.056408
v 0.000000 1.179744 7.056408
v 0.740000 -0.000000 7.056408
v 0.523259 -1.046468 7.056408
v -0.000000 -1.179743 7.056408
v -0.523259 -1.046467 7.056408
v -0.740000 0.000001 7.056408
v -0.523259 1.046468 7.056408
v -0.035165 0.580269 8.899936
v 0.386783 0.574557 7.712107
v 0.144000 0.680399 7.659716
v -0.124635 0.660159 7.641931
v -0.332047 0.182899 7.763257
v -0.327624 -0.584439 7.913651
v -0.084841 -0.690281 7.966043
v 0.183793 -0.670041 7.983828
v 0.391206 0.061839 7.862501
v -0.045868 0.525541 8.237459
v -0.174006 0.488078 8.257459
v -0.209702 0.260797 8.393284
v -0.137310 0.040965 8.526748
v -0.004499 0.021484 8.541044
v 0.123639 0.058947 8.521046
v 0.159335 0.286228 8.385221
v 0.086943 0.506061 8.251758
v 0.000000 3.606295 -0.102149
v 0.523259 2.550036 -0.102149
v 0.740000 -0.000000 -0.102149
v 0.523259 -2.550036 -0.102149
v 0.000000 -3.606295 -0.102149
v -0.523259 -2.550035 -0.102149
v -0.740000 -0.000000 -0.102149
v -0.523259 2.550035 -0.102149
v 0.000000 3.606295 -0.648487
v 0.523259 2.550036 -0.648487
v 0.740000 -0.000000 -0.648487
v 0.523259 -2.550036 -0.648487
v -0.000000 -3.606295 -0.648486
v -0.523259 -2.550035 -0.648487
v -0.740000 -0.000000 -0.648487
v -0.523259 2.550035 -0.648487
v -0.000000 1.305094 -1.184301
v 0.141782 0.922841 -1.184301
v 0.200509 -0.000000 -1.184301
v 0.141782 -0.922842 -1.184301
v -0.000000 -1.305095 -1.184301
v -0.141782 -0.922841 -1.184301
v -0.200510 -0.000000 -1.184301
v -0.141782 0.922841 -1.184301
v -0.000017 0.800588 -27.298618
v 0.086957 0.566100 -27.298618
v 0.122983 -0.000002 -27.298618
v 0.086957 -0.566105 -27.298618
v -0.000017 -0.800592 -27.298618
v -0.086991 -0.566105 -27.298618
v -0.123016 -0.000002 -27.298618
v -0.086991 0.566100 -27.298618
v -0.000017 -0.000002 -30.878519
v -0.523259 2.550035 -0.375317
v -0.740000 -0.000000 -0.375318
v -0.523259 -2.550035 -0.375318
v 0.000000 -3.606295 -0.375317
v 0.523259 -2.550036 -0.375318
v 0.740000 -0.000000 -0.375318
v 0.523259 2.550036 -0.375317
v 0.000000 3.606295 -0.375318
v -0.141782 0.922841 -1.184301
v -0.200510 -0.000000 -1.184301
v -0.141782 -0.922841 -1.184301
v -0.000000 -1.305095 -1.184301
v 0.141782 -0.922842 -1.184301
v 0.200509 -0.000000 -1.184301
v 0.141782 0.922841 -1.184301
v -0.000000 1.305094 -1.184301
v -0.523259 2.550035 -0.648487
v -0.740000 -0.000000 -0.648487
v -0.523259 -2.550035 -0.648487
v -0.000000 -3.606295 -0.648486
v 0.523259 -2.550036 -0.648487
v 0.740000 -0.000000 -0.648487
v 0.523259 2.550036 -0.648487
v 0.000000 3.606295 -0.648487
vt 0.0687 0.2184
vt 0.3779 0.2179
vt 0.3779 0.2713
vt 0.0687 0.2718
vt 0.3779 0.3247
vt 0.0687 0.3252
vt 0.3779 0.3781
vt 0.0687 0.3786
vt 0.3779 0.4315
vt 0.0687 0.4320
vt 0.0687 0.0041
vt 0.3779 0.0036
vt 0.3779 0.0570
vt 0.0687 0.0575
vt 0.3779 0.1104
vt 0.0687 0.1109
vt 0.3934 0.4349
vt 0.3825 0.4349
vt 0.3825 0.2749
vt 0.3825 0.2749
vt 0.3779 0.1638
vt 0.0687 0.1643
vt 0.3779 0.2172
vt 0.0687 0.2177
vt 0.9372 0.4363
vt 0.8890 0.2995
vt 0.4454 0.2995
vt 0.4867 0.4363
vt 0.4437 0.4349
vt 0.4161 0.4349
vt 0.4211 0.2749
vt 0.4437 0.2749
vt 0.3934 0.4349
vt 0.4329 0.4349
vt 0.4211 0.2749
vt 0.4042 0.2749
vt 0.4092 0.4349
vt 0.4042 0.2749
vt 0.4332 0.4349
vt 0.4437 0.2749
vt 0.3825 0.0089
vt 0.4042 0.0089
vt 0.4103 0.0020
vt 0.4211 0.0089
vt 0.4437 0.0089
vt 0.4437 0.0089
vt 0.4211 0.0089
vt 0.4042 0.0089
vt 0.3825 0.0089
vt 0.3825 0.1589
vt 0.3825 0.1589
vt 0.4042 0.1589
vt 0.4211 0.1589
vt 0.4437 0.1589
vt 0.4437 0.1589
vt 0.4211 0.1589
vt 0.4042 0.1589
vt 0.7576 0.0944
vt 0.9178 0.0944
vt 0.9178 0.0035
vt 0.7576 0.0035
vt 0.9376 0.1735
vt 0.4867 0.1735
vt 0.9994 0.2995
vt 0.9376 0.1735
vt 0.4867 0.1735
vt 0.9994 0.1735
vt 0.9372 0.4363
vt 0.9994 0.2995
vt 0.9994 0.4363
vt 0.4867 0.4363
vt 0.8890 0.2995
vt 0.4454 0.2995
vt 0.4473 0.0944
vt 0.5288 0.0944
vt 0.5288 0.0035
vt 0.4473 0.0035
vt 0.7576 0.0944
vt 0.5288 0.0944
vt 0.5288 0.0035
vt 0.7576 0.0035
vt 0.9992 0.0944
vt 0.9178 0.0944
vt 0.9178 0.0035
vt 0.9992 0.0035
vt 0.9987 0.8081
vt 0.9987 0.9940
vt 0.0767 0.9940
vt 0.0767 0.8081
vt 0.9987 0.5925
vt 0.9987 0.7113
vt 0.0767 0.7113
vt 0.0767 0.5925
vt 0.9987 0.8081
vt 0.9987 0.9940
vt 0.0767 0.9940
vt 0.0767 0.8081
vt 0.9987 0.5925
vt 0.9987 0.7113
vt 0.0767 0.7113
vt 0.0767 0.5925
vt 0.9987 0.4445
vt 0.0767 0.4445
vt 0.9987 0.4445
vt 0.0767 0.4445
vt 0.0006 0.7003
vt 0.9178 0.1690
vt 0.7576 0.1690
vt 0.5288 0.1690
vt 0.4473 0.1690
vt 0.5288 0.1690
vt 0.7576 0.1690
vt 0.9178 0.1690
vt 0.9992 0.1690
vt 0.4867 0.4363
vt 0.4454 0.2995
vt 0.8890 0.2995
vt 0.9372 0.4363
vt 0.4867 0.4363
vt 0.9994 0.4363
vt 0.9994 0.2995
vt 0.9372 0.4363
vt 0.9994 0.1735
vt 0.4867 0.1735
vt 0.9376 0.1735
vt 0.9994 0.2995
vt 0.4867 0.1735
vt 0.9376 0.1735
vt 0.4454 0.2995
vt 0.8890 0.2995
vn 0.3827 0.9239 -0.0000
vn 0.9239 0.3827 -0.0000
vn 0.9239 -0.3827 0.0000
vn 0.3827 -0.9239 0.0000
vn -0.3827 -0.9239 0.0000
vn -0.9239 -0.3827 0.0000
vn 0.9187 0.2537 -0.3027
vn -0.9239 0.3827 -0.0000
vn -0.3827 0.9239 -0.0000
vn -0.3208 0.2637 0.9097
vn -0.1373 -0.4104 -0.9015
vn -0.1373 0.4104 -0.9015
vn 0.1373 0.4104 -0.9015
vn 0.9187 -0.2537 -0.3028
vn -0.9187 -0.2537 -0.3027
vn 0.1373 -0.4104 -0.9015
vn -0.9187 0.2537 -0.3028
vn 0.1534 0.9846 -0.0838
vn -0.2905 0.9540 -0.0741
vn -0.9529 0.2512 0.1699
vn -0.9257 -0.0804 0.3696
vn -0.1679 -0.5392 0.8252
vn 0.2760 -0.5087 0.8155
vn 0.9432 0.0484 0.3288
vn 0.9160 0.3800 0.1291
vn 0.9214 0.1647 0.3521
vn 0.8961 -0.1862 0.4029
vn 0.1601 -0.8781 0.4509
vn -0.2924 -0.8342 0.4676
vn -0.9185 -0.0799 0.3874
vn -0.7986 0.2653 0.5402
vn -0.1606 0.7550 0.6358
vn 0.2014 0.7761 0.5975
vn 0.8802 0.2489 0.4040
vn 0.9184 -0.1329 0.3726
vn 0.0930 -0.6092 0.7875
vn -0.3278 -0.5896 0.7382
vn -0.9692 -0.0046 0.2463
vn -0.9327 0.3515 0.0812
vn -0.1386 0.9619 0.2358
vn 0.2547 0.9207 0.2957
vn -0.9964 0.0847 0.0000
vn 0.3208 0.2637 0.9097
vn 0.9711 -0.1370 0.1957
vn -0.9711 -0.1370 0.1957
vn 0.3208 -0.2637 0.9097
vn -0.9711 0.1370 0.1957
vn 0.9711 0.1370 0.1957
vn -0.3208 -0.2637 0.9097
vn -0.8961 -0.4439 0.0000
vn 0.9964 -0.0847 -0.0000
vn 0.8961 0.4439 -0.0000
vn -0.8961 0.4439 0.0000
vn -0.9964 -0.0847 0.0000
vn 0.8961 -0.4439 -0.0000
vn 0.9964 0.0847 -0.0000
vn -0.9376 0.3478 -0.0067
vn -0.9980 -0.0635 -0.0030
vn 0.9376 -0.3478 -0.0067
vn 0.9980 0.0635 -0.0030
vn -0.9980 0.0635 -0.0030
vn -0.9376 -0.3478 -0.0067
vn 0.9980 -0.0635 -0.0030
vn 0.9376 0.3478 -0.0067
vn 0.9348 0.3467 -0.0775
vn 0.9974 0.0635 -0.0343
vn 0.9974 -0.0635 -0.0343
vn 0.9348 -0.3467 -0.0775
vn -0.9348 -0.3467 -0.0775
vn -0.9974 -0.0635 -0.0343
vn -0.9974 0.0635 -0.0343
vn -0.9348 0.3467 -0.0775
vn 0.4296 -0.1986 -0.8809
vn 0.7131 0.0566 -0.6988
vn -0.7131 0.0566 -0.6988
vn -0.4296 -0.1986 -0.8809
vn 0.7131 -0.0566 -0.6988
vn 0.4296 0.1986 -0.8809
vn -0.4296 0.1986 -0.8809
vn -0.7131 -0.0566 -0.6988
usemtl None
s off
f 1/1/1 2/2/1 4/3/1 3/4/1
f 3/4/2 4/3/2 6/5/2 5/6/2
f 5/6/3 6/5/3 8/7/3 7/8/3
f 7/8/4 8/7/4 10/9/4 9/10/4
f 9/11/5 10/12/5 12/13/5 11/14/5
f 11/14/6 12/13/6 14/15/6 13/16/6
f 6/17/7 4/18/7 17/19/7 19/20/7
f 13/16/8 14/15/8 16/21/8 15/22/8
f 15/22/9 16/21/9 2/23/9 1/24/9
f 15/25/10 1/26/10 42/27/10 49/28/10
f 12/29/11 10/30/11 21/31/11 22/32/11
f 2/33/12 16/34/12 24/35/12 18/36/12
f 4/18/13 2/33/13 18/36/13 17/19/13
f 8/37/14 6/17/14 19/20/14 20/38/14
f 14/39/15 12/29/15 22/32/15 23/40/15
f 10/30/16 8/37/16 20/38/16 21/31/16
f 16/34/17 14/39/17 23/40/17 24/35/17
f 41/41/18 34/42/18 25/43/18
f 34/42/19 35/44/19 25/43/19
f 35/44/20 36/45/20 25/43/20
f 36/45/21 37/46/21 25/43/21
f 37/46/22 38/47/22 25/43/22
f 38/47/23 39/48/23 25/43/23
f 39/48/24 40/49/24 25/43/24
f 40/49/25 41/41/25 25/43/25
f 19/20/26 17/19/26 26/50/26 33/51/26
f 20/38/27 19/20/27 33/51/27 32/52/27
f 21/31/28 20/38/28 32/52/28 31/53/28
f 22/32/29 21/31/29 31/53/29 30/54/29
f 23/40/30 22/32/30 30/54/30 29/55/30
f 24/35/31 23/40/31 29/55/31 28/56/31
f 18/36/32 24/35/32 28/56/32 27/57/32
f 17/19/33 18/36/33 27/57/33 26/50/33
f 33/51/34 26/50/34 41/41/34 40/49/34
f 32/52/35 33/51/35 40/49/35 39/48/35
f 31/53/36 32/52/36 39/48/36 38/47/36
f 30/54/37 31/53/37 38/47/37 37/46/37
f 29/55/38 30/54/38 37/46/38 36/45/38
f 28/56/39 29/55/39 36/45/39 35/44/39
f 27/57/40 28/56/40 35/44/40 34/42/40
f 26/50/41 27/57/41 34/42/41 41/41/41
f 76/58/42 75/59/42 57/60/42 56/61/42
f 1/26/43 3/62/43 43/63/43 42/27/43
f 5/64/44 7/65/44 45/66/44 44/67/44
f 11/68/45 13/69/45 48/70/45 47/71/45
f 7/65/46 9/72/46 46/73/46 45/66/46
f 13/69/47 15/25/47 49/28/47 48/70/47
f 3/62/48 5/64/48 44/67/48 43/63/48
f 9/72/49 11/68/49 47/71/49 46/73/49
f 78/74/50 77/75/50 55/76/50 54/77/50
f 80/78/51 79/79/51 53/80/51 52/81/51
f 82/82/52 81/83/52 51/84/52 50/85/52
f 75/59/53 82/82/53 50/85/53 57/60/53
f 77/75/54 76/58/54 56/61/54 55/76/54
f 79/79/55 78/74/55 54/77/55 53/80/55
f 81/83/56 80/78/56 52/81/56 51/84/56
f 65/86/57 58/87/57 66/88/57 73/89/57
f 63/90/58 64/91/58 72/92/58 71/93/58
f 61/94/59 62/95/59 70/96/59 69/97/59
f 59/98/60 60/99/60 68/100/60 67/101/60
f 64/91/61 65/86/61 73/89/61 72/92/61
f 62/102/62 63/90/62 71/93/62 70/103/62
f 60/99/63 61/94/63 69/97/63 68/100/63
f 58/104/64 59/98/64 67/101/64 66/105/64
f 66/105/65 67/101/65 74/106/65
f 67/101/66 68/100/66 74/106/66
f 68/100/67 69/97/67 74/106/67
f 69/97/68 70/96/68 74/106/68
f 70/103/69 71/93/69 74/106/69
f 71/93/70 72/92/70 74/106/70
f 72/92/71 73/89/71 74/106/71
f 73/89/72 66/88/72 74/106/72
f 43/107/56 44/108/56 80/78/56 81/83/56
f 45/109/55 46/110/55 78/74/55 79/79/55
f 47/111/54 48/112/54 76/58/54 77/75/54
f 49/113/53 42/114/53 82/82/53 75/59/53
f 42/114/52 43/107/52 81/83/52 82/82/52
f 44/108/51 45/109/51 79/79/51 80/78/51
f 46/110/50 47/111/50 77/75/50 78/74/50
f 48/112/42 49/113/42 75/59/42 76/58/42
f 95/115/73 94/116/73 86/117/73 87/118/73
f 97/119/74 96/120/74 88/121/74 89/122/74
f 92/123/75 91/124/75 83/125/75 84/126/75
f 94/116/76 93/127/76 85/128/76 86/117/76
f 96/120/77 95/115/77 87/118/77 88/121/77
f 98/129/78 97/119/78 89/122/78 90/130/78
f 91/124/79 98/129/79 90/130/79 83/125/79
f 93/127/80 92/123/80 84/126/80 85/128/80
