# Blender v2.78 (sub 0) OBJ File: ''
# www.blender.org
#mtllib texcube.mtl
#o Cube
v  1.0 -1.0 -1.0 # 1
v  1.0 -1.0  1.0 # 2
v -1.0 -1.0  1.0 # 3
v -1.0 -1.0 -1.0 # 4
v  1.0  1.0 -1.0 # 5
v  1.0  1.0  1.0 # 6
v -1.0  1.0  1.0 # 7
v -1.0  1.0 -1.0 # 8

vt  1.0 -1.0 # 1
vt  1.0  1.0 # 2
vt -1.0  1.0 # 3
vt -1.0 -1.0 # 4

vn 0.5773 -0.5773 -0.5773
vn 0.5773 -0.5773 0.5773
vn -0.5773 -0.5773 0.5773
vn -0.5773 -0.5773 -0.5773
vn 0.5773 0.5773 -0.5773
vn -0.5773 0.5773 -0.5773
vn -0.5773 0.5773 0.5773
vn 0.5773 0.5773 0.5773
#usemtl Material
#s 1
f 1/1/1 2/2/2 3/3/3 4/4/4
f 5/1/5 8/4/6 7/3/7 6/2/8
f 1/1/1 5/2/5 6/3/8 2/4/2
f 2/1/2 6/2/8 7/3/7 3/4/3
f 3/1/3 7/2/7 8/3/6 4/4/4
f 5/1/5 1/2/1 4/3/4 8/4/6
