# Blender v2.78 (sub 0) OBJ File: ''
# www.blender.org
#mtllib texcube.mtl
#o Cube
v 1.000000 -1.000000 -1.029865
v 1.000000 -1.000000 0.970135
v -1.000000 -1.000000 0.970134
v -1.000000 -1.000000 -1.029866
v 1.000000 1.000000 -1.029865
v 0.999999 1.000000 0.970135
v -1.000000 1.000000 0.970134
v -1.000000 1.000000 -1.029865
vn 0.5773 -0.5773 -0.5773
vn 0.5773 -0.5773 0.5773
vn -0.5773 -0.5773 0.5773
vn -0.5773 -0.5773 -0.5773
vn 0.5773 0.5773 -0.5773
vn -0.5773 0.5773 -0.5773
vn -0.5773 0.5773 0.5773
vn 0.5773 0.5773 0.5773
#usemtl Material
#s 1
f 1//1 2//2 3//3 4//4
f 5//5 8//6 7//7 6//8
f 1//1 5//5 6//8 2//2
f 2//2 6//8 7//7 3//3
f 3//3 7//7 8//6 4//4
f 5//5 1//1 4//4 8//6
